<svg width="50" height="51" viewBox="0 0 50 51" fill="none" xmlns="http://www.w3.org/2000/svg">
<path d="M46.57 9.79991L26.05 3.42991C25.7834 3.34643 25.503 3.31644 25.2248 3.34168C24.9466 3.36692 24.6761 3.44688 24.429 3.57698C24.1818 3.70708 23.9627 3.88474 23.7844 4.09976C23.6061 4.31478 23.4721 4.56292 23.39 4.82991L18.54 20.4099L24.97 19.4099C25.5283 19.3237 26.0979 19.4629 26.5536 19.7967C27.0093 20.1305 27.3138 20.6316 27.4 21.1899L29 31.2899L39 34.3899C39.2672 34.4735 39.5483 34.5037 39.8272 34.4785C40.1061 34.4534 40.3773 34.3736 40.6253 34.2435C40.8733 34.1135 41.0932 33.9359 41.2724 33.7207C41.4517 33.5056 41.5868 33.2573 41.67 32.9899L48 12.4699C48.0844 12.2008 48.1143 11.9175 48.0878 11.6367C48.0614 11.3558 47.9792 11.0831 47.846 10.8344C47.7128 10.5858 47.5314 10.3662 47.3123 10.1886C47.0932 10.0109 46.8408 9.87879 46.57 9.79991Z" fill="#D15187"/>
<path d="M17 25.3499L18.53 20.4099L3.73003 22.7499C3.19203 22.8502 2.71289 23.1528 2.39111 23.5954C2.06934 24.0381 1.92939 24.5872 2.00003 25.1299L5.23003 46.3699C5.3186 46.9264 5.62404 47.425 6.07947 47.7568C6.53491 48.0885 7.10324 48.2263 7.66003 48.1399L28.9 44.8699C29.4583 44.7837 29.9595 44.4793 30.2933 44.0235C30.6271 43.5678 30.7662 42.9982 30.68 42.4399L29 31.2899L18.41 28.0099C18.1421 27.9289 17.8929 27.7956 17.6768 27.6177C17.4607 27.4398 17.282 27.221 17.1509 26.9737C17.0198 26.7264 16.939 26.4556 16.9131 26.1769C16.8872 25.8982 16.9167 25.6171 17 25.3499Z" fill="#6F2CFF"/>
<path d="M25 19.42L18.57 20.42L17 25.35C16.9165 25.6166 16.8865 25.897 16.9117 26.1752C16.937 26.4534 17.017 26.7239 17.147 26.9711C17.2771 27.2182 17.4548 27.4373 17.6698 27.6156C17.8849 27.7939 18.133 27.9279 18.4 28.01L29 31.29L27.4 21.2C27.3135 20.6478 27.0135 20.1516 26.5645 19.8186C26.1155 19.4856 25.5536 19.3425 25 19.42Z" fill="#A445BB"/>
<path d="M32.48 21.2399C33.6674 21.2399 34.63 20.2774 34.63 19.0899C34.63 17.9025 33.6674 16.9399 32.48 16.9399C31.2926 16.9399 30.33 17.9025 30.33 19.0899C30.33 20.2774 31.2926 21.2399 32.48 21.2399Z" fill="white"/>
<path d="M28.24 13.1899C29.4274 13.1899 30.39 12.2273 30.39 11.0399C30.39 9.85248 29.4274 8.88989 28.24 8.88989C27.0526 8.88989 26.09 9.85248 26.09 11.0399C26.09 12.2273 27.0526 13.1899 28.24 13.1899Z" fill="white"/>
<path d="M40.53 17.01C41.7174 17.01 42.68 16.0474 42.68 14.86C42.68 13.6725 41.7174 12.71 40.53 12.71C39.3426 12.71 38.38 13.6725 38.38 14.86C38.38 16.0474 39.3426 17.01 40.53 17.01Z" fill="white"/>
<path d="M24.42 25.4799C25.6074 25.4799 26.57 24.5173 26.57 23.3299C26.57 22.1425 25.6074 21.1799 24.42 21.1799C23.2326 21.1799 22.27 22.1425 22.27 23.3299C22.27 24.5173 23.2326 25.4799 24.42 25.4799Z" fill="white"/>
<path d="M36.71 29.3C37.8974 29.3 38.86 28.3374 38.86 27.15C38.86 25.9626 37.8974 25 36.71 25C35.5226 25 34.56 25.9626 34.56 27.15C34.56 28.3374 35.5226 29.3 36.71 29.3Z" fill="white"/>
<path d="M16.39 36.1101C17.5774 36.1101 18.54 35.1475 18.54 33.9601C18.54 32.7726 17.5774 31.8101 16.39 31.8101C15.2026 31.8101 14.24 32.7726 14.24 33.9601C14.24 35.1475 15.2026 36.1101 16.39 36.1101Z" fill="white"/>
<path d="M9.04001 30.7299C10.2274 30.7299 11.19 29.7673 11.19 28.5799C11.19 27.3925 10.2274 26.4299 9.04001 26.4299C7.8526 26.4299 6.89001 27.3925 6.89001 28.5799C6.89001 29.7673 7.8526 30.7299 9.04001 30.7299Z" fill="white"/>
<path d="M23.73 41.4799C24.9174 41.4799 25.88 40.5173 25.88 39.3299C25.88 38.1425 24.9174 37.1799 23.73 37.1799C22.5426 37.1799 21.58 38.1425 21.58 39.3299C21.58 40.5173 22.5426 41.4799 23.73 41.4799Z" fill="white"/>
</svg>
