<svg width="36" height="45" viewBox="0 0 36 45" fill="none" xmlns="http://www.w3.org/2000/svg">
<g style="mix-blend-mode:multiply">
<path d="M25.85 22.6301C24.977 23.9068 23.8057 24.9513 22.4378 25.673C21.0699 26.3947 19.5466 26.7719 18 26.7719C16.4534 26.7719 14.9301 26.3947 13.5622 25.673C12.1943 24.9513 11.0231 23.9068 10.15 22.6301C8.3655 23.8836 6.90938 25.5487 5.90498 27.4844C4.90058 29.4201 4.37749 31.5694 4.38001 33.7501V44.8801H31.62V33.7501C31.6225 31.5694 31.0994 29.4201 30.095 27.4844C29.0906 25.5487 27.6345 23.8836 25.85 22.6301Z" fill="#6F00FF"/>
</g>
<g style="mix-blend-mode:multiply">
<path d="M25.85 22.6299C26.827 21.2012 27.3956 19.5329 27.4945 17.8049C27.5933 16.0769 27.2187 14.3547 26.411 12.8239C25.6034 11.2931 24.3932 10.0117 22.911 9.11788C21.4288 8.22407 19.7308 7.75171 18 7.75171C16.2692 7.75171 14.5711 8.22407 13.089 9.11788C11.6068 10.0117 10.3966 11.2931 9.58894 12.8239C8.78125 14.3547 8.40665 16.0769 8.50552 17.8049C8.60439 19.5329 9.17297 21.2012 10.15 22.6299C12.4442 21.0029 15.1874 20.1289 18 20.1289C20.8126 20.1289 23.5557 21.0029 25.85 22.6299Z" fill="#D15187"/>
</g>
<path d="M18 26.7699C19.5465 26.7701 21.0697 26.3932 22.4376 25.6718C23.8055 24.9504 24.9768 23.9062 25.85 22.6299C23.5558 21.0029 20.8126 20.1289 18 20.1289C15.1874 20.1289 12.4443 21.0029 10.15 22.6299C11.0233 23.9062 12.1946 24.9504 13.5625 25.6718C14.9304 26.3932 16.4536 26.7701 18 26.7699Z" fill="#A445BB"/>
<path d="M0.75 16.79L4.84 17.25L0.75 17.72V16.79Z" fill="#6F2CFF"/>
<path d="M18.46 0.0100098L18 4.09001L17.54 0.0100098H18.46Z" fill="#6F2CFF"/>
<path d="M35.25 17.72L31.16 17.25L35.25 16.79V17.72Z" fill="#6F2CFF"/>
</svg>
