<svg width="50" height="51" viewBox="0 0 50 51" fill="none" xmlns="http://www.w3.org/2000/svg">
<path d="M40.28 26.45C38.47 31.64 33.39 37.38 29.28 41.45C30.6108 42.9757 32.0405 44.4121 33.56 45.75C33.8735 46.0304 34.2794 46.1854 34.7 46.1854C35.1206 46.1854 35.5265 46.0304 35.84 45.75C38.33 43.54 44.06 38.03 44.06 33.9799C44.0632 32.5166 43.7228 31.0729 43.0662 29.765C42.4097 28.4572 41.4554 27.3217 40.28 26.45Z" fill="#D15187"/>
<path d="M40.28 26.45C38.8895 25.4129 37.2378 24.7831 35.5098 24.631C33.7817 24.4789 32.0455 24.8105 30.4951 25.5888C28.9448 26.3671 27.6416 27.5613 26.7311 29.0379C25.8207 30.5145 25.3391 32.2153 25.34 33.95C25.34 36.26 27.21 39.05 29.28 41.43C33.39 37.38 38.47 31.64 40.28 26.45Z" fill="#A445BB"/>
<path d="M23.46 5.3301C21.1589 5.32879 18.8801 5.78106 16.7538 6.66106C14.6276 7.54105 12.6957 8.83152 11.0686 10.4587C9.44142 12.0858 8.15096 14.0177 7.27096 16.1439C6.39096 18.2702 5.93869 20.549 5.94001 22.8501C5.94001 31.0301 18.47 42.4301 22.33 45.7501C22.6425 46.0203 23.0419 46.169 23.455 46.169C23.8681 46.169 24.2675 46.0203 24.58 45.7501C25.64 44.8401 27.35 43.3201 29.28 41.4301C27.21 39.0501 25.34 36.2601 25.34 33.9501C25.3534 31.6592 26.2075 29.453 27.74 27.7501C26.5871 28.8517 25.0546 29.4675 23.46 29.4701C22.0019 29.4902 20.5812 29.0086 19.4359 28.1061C18.2905 27.2035 17.4901 25.9348 17.1687 24.5124C16.8473 23.09 17.0245 21.6004 17.6705 20.2931C18.3166 18.9858 19.3922 17.9401 20.7173 17.3314C22.0424 16.7226 23.5364 16.5877 24.9492 16.9493C26.3619 17.3108 27.6074 18.1468 28.4772 19.3173C29.347 20.4877 29.7881 21.9215 29.7267 23.3784C29.6653 24.8354 29.1051 26.227 28.14 27.3201C29.7284 25.7502 31.8277 24.8028 34.0559 24.6505C36.284 24.4981 38.4927 25.151 40.28 26.4901C40.7263 25.3268 40.9698 24.0957 41 22.8501C41.0013 20.5473 40.5484 18.2668 39.6671 16.1393C38.7859 14.0118 37.4936 12.079 35.8644 10.4516C34.2351 8.82417 32.3008 7.53413 30.1723 6.65531C28.0438 5.77649 25.7628 5.32616 23.46 5.3301Z" fill="#6F2CFF"/>
</svg>
